<svg width="20" height="18" viewBox="0 0 20 18" fill="none" xmlns="http://www.w3.org/2000/svg">
<path d="M18.7399 5.39746C18.5306 5.03998 18.0712 4.91982 17.7137 5.12907C17.3563 5.33832 17.2361 5.79774 17.4453 6.15521L18.7399 5.39746ZM18.0926 12.4737L17.4453 12.0948L18.0926 12.4737ZM7.16464 15.9026C6.77298 15.7677 6.34619 15.976 6.21137 16.3676C6.07656 16.7593 6.28478 17.1861 6.67645 17.3209L7.16464 15.9026ZM1.9074 12.4737L2.55466 12.0948L1.9074 12.4737ZM1.9074 5.77633L2.55466 6.15521L1.9074 5.77633ZM11.9162 7.09331C12.216 7.37918 12.6907 7.36793 12.9766 7.06818C13.2624 6.76843 13.2512 6.29369 12.9514 6.00782L11.9162 7.09331ZM6.7432 12.0407C7.01234 12.3555 7.48577 12.3926 7.80062 12.1235C8.11548 11.8543 8.15254 11.3809 7.8834 11.066L6.7432 12.0407ZM14.3067 9.1857C14.3067 8.77149 13.9709 8.4357 13.5567 8.4357C13.1425 8.4357 12.8067 8.77149 12.8067 9.1857H14.3067ZM9.99944 12.0483C9.58523 12.0483 9.24944 12.3841 9.24944 12.7983C9.24944 13.2125 9.58523 13.5483 9.99944 13.5483V12.0483ZM18.4095 1.65114C18.7001 1.35595 18.6963 0.881089 18.4011 0.590511C18.1059 0.299933 17.6311 0.303672 17.3405 0.598862L18.4095 1.65114ZM2.15301 16.0274C1.86243 16.3226 1.86617 16.7975 2.16136 17.0881C2.45655 17.3786 2.93141 17.3749 3.22199 17.0797L2.15301 16.0274ZM17.4453 6.15521C18.5182 7.9881 18.5182 10.2619 17.4453 12.0948L18.7399 12.8525C20.0867 10.5516 20.0867 7.69837 18.7399 5.39746L17.4453 6.15521ZM17.4453 12.0948C15.2217 15.8936 10.8404 17.1677 7.16464 15.9026L6.67645 17.3209C10.9744 18.8002 16.1274 17.3157 18.7399 12.8525L17.4453 12.0948ZM2.55466 12.0948C1.48178 10.2619 1.48178 7.9881 2.55466 6.15521L1.26013 5.39746C-0.086711 7.69837 -0.0867115 10.5516 1.26013 12.8525L2.55466 12.0948ZM4.45255 14.3638C3.72734 13.7508 3.08181 12.9954 2.55466 12.0948L1.26013 12.8525C1.87315 13.8998 2.62893 14.7864 3.48415 15.5093L4.45255 14.3638ZM2.55466 6.15521C5.26824 1.5194 11.2017 0.644963 15.1232 3.55027L16.0162 2.345C11.4173 -1.06207 4.44922 -0.050702 1.26013 5.39746L2.55466 6.15521ZM7.19331 9.1857C7.19331 7.59201 8.46065 6.32199 9.99944 6.32199V4.82199C7.60973 4.82199 5.69331 6.78625 5.69331 9.1857H7.19331ZM9.99944 6.32199C10.7392 6.32199 11.4126 6.61302 11.9162 7.09331L12.9514 6.00782C12.1822 5.27425 11.1429 4.82199 9.99944 4.82199V6.32199ZM7.8834 11.066C7.45402 10.5637 7.19331 9.90747 7.19331 9.1857H5.69331C5.69331 10.2755 6.08864 11.275 6.7432 12.0407L7.8834 11.066ZM12.8067 9.1857C12.8067 10.7778 11.5387 12.0483 9.99944 12.0483V13.5483C12.3887 13.5483 14.3067 11.5845 14.3067 9.1857H12.8067ZM17.3405 0.598862L2.15301 16.0274L3.22199 17.0797L18.4095 1.65114L17.3405 0.598862Z" fill="#839198"/>
</svg>
