<svg width="228" height="41" viewBox="0 0 228 41" fill="none" xmlns="http://www.w3.org/2000/svg">
<path d="M27.1667 31.1667H5.83333C4.36057 31.1667 3.16666 29.9728 3.16666 28.5V12.5C3.16666 11.0272 4.36057 9.83333 5.83333 9.83333H27.1667C28.6395 9.83333 29.8333 11.0272 29.8333 12.5V28.5C29.8333 29.9728 28.6395 31.1667 27.1667 31.1667ZM5.83333 20.5V28.5H27.1667V20.5H5.83333ZM5.83333 12.5V15.1667H27.1667V12.5H5.83333ZM17.8333 25.8333H8.5V23.1667H17.8333V25.8333Z" fill="#525298"/>
<path d="M55.1417 30.0938C53.0605 30.0938 51.4105 29.4938 50.1917 28.2937C48.973 27.0937 48.3167 25.3875 48.223 23.175C48.2042 22.9875 48.1948 22.7531 48.1948 22.4719C48.1948 22.1719 48.2042 21.9375 48.223 21.7687C48.298 20.3625 48.6167 19.1437 49.1792 18.1125C49.7605 17.0812 50.5573 16.2937 51.5698 15.75C52.5823 15.1875 53.773 14.9062 55.1417 14.9062C56.6605 14.9062 57.9355 15.225 58.9667 15.8625C59.998 16.4812 60.7761 17.3531 61.3011 18.4781C61.8261 19.5844 62.0886 20.8687 62.0886 22.3312V22.9219C62.0886 23.1094 62.023 23.2687 61.8917 23.4C61.7605 23.5312 61.5917 23.5969 61.3855 23.5969H52.048C52.048 23.5969 52.048 23.625 52.048 23.6812C52.048 23.7375 52.048 23.7844 52.048 23.8219C52.0667 24.4781 52.1886 25.0875 52.4136 25.65C52.6573 26.1937 53.0042 26.6344 53.4542 26.9719C53.923 27.3094 54.4761 27.4781 55.1136 27.4781C55.6386 27.4781 56.0792 27.4031 56.4355 27.2531C56.7917 27.0844 57.0823 26.8969 57.3073 26.6906C57.5323 26.4844 57.6917 26.3156 57.7855 26.1844C57.9542 25.9594 58.0855 25.8281 58.1792 25.7906C58.2917 25.7344 58.4511 25.7062 58.6573 25.7062H61.0761C61.2636 25.7062 61.4136 25.7625 61.5261 25.875C61.6573 25.9875 61.7136 26.1281 61.6948 26.2969C61.6761 26.5969 61.5167 26.9625 61.2167 27.3937C60.9355 27.825 60.523 28.2469 59.9792 28.6594C59.4355 29.0719 58.7511 29.4187 57.9261 29.7C57.1198 29.9625 56.1917 30.0938 55.1417 30.0938ZM52.048 21.2344H58.2636V21.15C58.2636 20.4187 58.1417 19.7812 57.898 19.2375C57.6542 18.6937 57.298 18.2625 56.8292 17.9437C56.3605 17.625 55.798 17.4656 55.1417 17.4656C54.4855 17.4656 53.923 17.625 53.4542 17.9437C52.9855 18.2625 52.6292 18.6937 52.3855 19.2375C52.1605 19.7812 52.048 20.4187 52.048 21.15V21.2344ZM66.0865 29.8125C65.899 29.8125 65.7396 29.7469 65.6084 29.6156C65.4771 29.4844 65.4115 29.325 65.4115 29.1375V10.8281C65.4115 10.6219 65.4771 10.4531 65.6084 10.3219C65.7396 10.1906 65.899 10.125 66.0865 10.125H73.624C75.0865 10.125 76.3615 10.3594 77.449 10.8281C78.5365 11.2781 79.3803 11.9719 79.9803 12.9094C80.5803 13.8281 80.8803 14.9812 80.8803 16.3687C80.8803 17.775 80.5803 18.9375 79.9803 19.8562C79.3803 20.7562 78.5365 21.4312 77.449 21.8812C76.3615 22.3312 75.0865 22.5562 73.624 22.5562H69.4334V29.1375C69.4334 29.325 69.3678 29.4844 69.2365 29.6156C69.124 29.7469 68.9646 29.8125 68.7584 29.8125H66.0865ZM69.3771 19.4344H73.4834C74.5709 19.4344 75.4053 19.1812 75.9865 18.675C76.5678 18.15 76.8584 17.3812 76.8584 16.3687C76.8584 15.4312 76.5865 14.6812 76.0428 14.1187C75.499 13.5375 74.6459 13.2469 73.4834 13.2469H69.3771V19.4344ZM89.7212 30.0938C87.6399 30.0938 85.9899 29.4938 84.7712 28.2937C83.5524 27.0937 82.8962 25.3875 82.8024 23.175C82.7837 22.9875 82.7743 22.7531 82.7743 22.4719C82.7743 22.1719 82.7837 21.9375 82.8024 21.7687C82.8774 20.3625 83.1962 19.1437 83.7587 18.1125C84.3399 17.0812 85.1368 16.2937 86.1493 15.75C87.1618 15.1875 88.3524 14.9062 89.7212 14.9062C91.2399 14.9062 92.5149 15.225 93.5462 15.8625C94.5774 16.4812 95.3556 17.3531 95.8806 18.4781C96.4056 19.5844 96.6681 20.8687 96.6681 22.3312V22.9219C96.6681 23.1094 96.6024 23.2687 96.4712 23.4C96.3399 23.5312 96.1712 23.5969 95.9649 23.5969H86.6274C86.6274 23.5969 86.6274 23.625 86.6274 23.6812C86.6274 23.7375 86.6274 23.7844 86.6274 23.8219C86.6462 24.4781 86.7681 25.0875 86.9931 25.65C87.2368 26.1937 87.5837 26.6344 88.0337 26.9719C88.5024 27.3094 89.0556 27.4781 89.6931 27.4781C90.2181 27.4781 90.6587 27.4031 91.0149 27.2531C91.3712 27.0844 91.6618 26.8969 91.8868 26.6906C92.1118 26.4844 92.2712 26.3156 92.3649 26.1844C92.5337 25.9594 92.6649 25.8281 92.7587 25.7906C92.8712 25.7344 93.0306 25.7062 93.2368 25.7062H95.6556C95.8431 25.7062 95.9931 25.7625 96.1056 25.875C96.2368 25.9875 96.2931 26.1281 96.2743 26.2969C96.2556 26.5969 96.0962 26.9625 95.7962 27.3937C95.5149 27.825 95.1024 28.2469 94.5587 28.6594C94.0149 29.0719 93.3306 29.4187 92.5056 29.7C91.6993 29.9625 90.7712 30.0938 89.7212 30.0938ZM86.6274 21.2344H92.8431V21.15C92.8431 20.4187 92.7212 19.7812 92.4774 19.2375C92.2337 18.6937 91.8774 18.2625 91.4087 17.9437C90.9399 17.625 90.3774 17.4656 89.7212 17.4656C89.0649 17.4656 88.5024 17.625 88.0337 17.9437C87.5649 18.2625 87.2087 18.6937 86.9649 19.2375C86.7399 19.7812 86.6274 20.4187 86.6274 21.15V21.2344ZM100.328 29.8125C100.141 29.8125 99.9816 29.7469 99.8504 29.6156C99.7191 29.4844 99.6535 29.325 99.6535 29.1375V15.8625C99.6535 15.675 99.7191 15.5156 99.8504 15.3844C99.9816 15.2531 100.141 15.1875 100.328 15.1875H102.635C102.822 15.1875 102.982 15.2531 103.113 15.3844C103.244 15.5156 103.31 15.675 103.31 15.8625V17.0156C103.797 16.4156 104.416 15.9187 105.166 15.525C105.935 15.1125 106.882 14.9062 108.007 14.9062C109.15 14.9062 110.144 15.1687 110.988 15.6937C111.832 16.2 112.478 16.9219 112.928 17.8594C113.397 18.7969 113.632 19.9219 113.632 21.2344V29.1375C113.632 29.325 113.566 29.4844 113.435 29.6156C113.303 29.7469 113.144 29.8125 112.957 29.8125H110.482C110.294 29.8125 110.135 29.7469 110.003 29.6156C109.872 29.4844 109.807 29.325 109.807 29.1375V21.4031C109.807 20.3156 109.535 19.4625 108.991 18.8437C108.466 18.225 107.697 17.9156 106.685 17.9156C105.71 17.9156 104.932 18.225 104.35 18.8437C103.769 19.4625 103.478 20.3156 103.478 21.4031V29.1375C103.478 29.325 103.413 29.4844 103.282 29.6156C103.15 29.7469 102.991 29.8125 102.803 29.8125H100.328ZM122.632 30.0938C121.657 30.0938 120.795 29.9344 120.045 29.6156C119.314 29.2781 118.704 28.8094 118.217 28.2094C117.729 27.6094 117.354 26.9062 117.092 26.1C116.829 25.275 116.679 24.375 116.642 23.4C116.623 23.0625 116.614 22.7625 116.614 22.5C116.614 22.2187 116.623 21.9094 116.642 21.5719C116.679 20.6344 116.82 19.7625 117.064 18.9562C117.326 18.15 117.701 17.4469 118.189 16.8469C118.695 16.2281 119.314 15.75 120.045 15.4125C120.795 15.075 121.657 14.9062 122.632 14.9062C123.645 14.9062 124.498 15.0844 125.192 15.4406C125.904 15.7781 126.495 16.2187 126.964 16.7625V10.5187C126.964 10.3312 127.02 10.1719 127.132 10.0406C127.264 9.90937 127.432 9.84375 127.639 9.84375H130.029C130.217 9.84375 130.376 9.90937 130.507 10.0406C130.639 10.1719 130.704 10.3312 130.704 10.5187V29.1375C130.704 29.325 130.639 29.4844 130.507 29.6156C130.376 29.7469 130.217 29.8125 130.029 29.8125H127.807C127.601 29.8125 127.432 29.7469 127.301 29.6156C127.189 29.4844 127.132 29.325 127.132 29.1375V28.0969C126.664 28.6781 126.064 29.1562 125.332 29.5312C124.62 29.9063 123.72 30.0938 122.632 30.0938ZM123.673 27.0844C124.46 27.0844 125.089 26.9062 125.557 26.55C126.026 26.1937 126.373 25.7437 126.598 25.2C126.823 24.6375 126.945 24.0656 126.964 23.4844C126.982 23.1469 126.992 22.7906 126.992 22.4156C126.992 22.0219 126.982 21.6562 126.964 21.3187C126.945 20.7562 126.814 20.2219 126.57 19.7156C126.326 19.1906 125.97 18.7594 125.501 18.4219C125.032 18.0844 124.423 17.9156 123.673 17.9156C122.885 17.9156 122.257 18.0937 121.789 18.45C121.339 18.7875 121.01 19.2375 120.804 19.8C120.598 20.3625 120.476 20.9812 120.439 21.6562C120.42 22.2187 120.42 22.7812 120.439 23.3437C120.476 24.0187 120.598 24.6375 120.804 25.2C121.01 25.7625 121.339 26.2219 121.789 26.5781C122.257 26.9156 122.885 27.0844 123.673 27.0844ZM138.7 30.0938C137.725 30.0938 136.843 29.9063 136.056 29.5312C135.268 29.1375 134.64 28.6219 134.171 27.9844C133.721 27.3281 133.496 26.5969 133.496 25.7906C133.496 24.4781 134.021 23.4375 135.071 22.6687C136.14 21.8812 137.546 21.3562 139.29 21.0937L143.143 20.5312V19.9406C143.143 19.1531 142.946 18.5437 142.553 18.1125C142.159 17.6812 141.484 17.4656 140.528 17.4656C139.853 17.4656 139.3 17.6062 138.868 17.8875C138.456 18.15 138.146 18.5062 137.94 18.9562C137.79 19.2 137.575 19.3219 137.293 19.3219H135.071C134.865 19.3219 134.706 19.2656 134.593 19.1531C134.5 19.0406 134.453 18.8906 134.453 18.7031C134.471 18.4031 134.593 18.0375 134.818 17.6062C135.043 17.175 135.4 16.7625 135.887 16.3687C136.375 15.9562 137.003 15.6094 137.771 15.3281C138.54 15.0469 139.468 14.9062 140.556 14.9062C141.737 14.9062 142.731 15.0562 143.537 15.3563C144.362 15.6375 145.018 16.0219 145.506 16.5094C145.993 16.9969 146.35 17.5687 146.575 18.225C146.8 18.8812 146.912 19.575 146.912 20.3062V29.1375C146.912 29.325 146.846 29.4844 146.715 29.6156C146.584 29.7469 146.425 29.8125 146.237 29.8125H143.959C143.753 29.8125 143.584 29.7469 143.453 29.6156C143.34 29.4844 143.284 29.325 143.284 29.1375V28.0406C143.04 28.3969 142.712 28.7344 142.3 29.0531C141.887 29.3531 141.381 29.6062 140.781 29.8125C140.2 30 139.506 30.0938 138.7 30.0938ZM139.656 27.4219C140.312 27.4219 140.903 27.2812 141.428 27C141.971 26.7187 142.393 26.2875 142.693 25.7062C143.012 25.1062 143.171 24.3562 143.171 23.4562V22.8656L140.359 23.3156C139.253 23.4844 138.428 23.7562 137.884 24.1312C137.34 24.5062 137.068 24.9656 137.068 25.5094C137.068 25.9219 137.19 26.2781 137.434 26.5781C137.696 26.8594 138.025 27.075 138.418 27.225C138.812 27.3562 139.225 27.4219 139.656 27.4219ZM151.223 35.1563C151.036 35.1563 150.876 35.0906 150.745 34.9594C150.614 34.8281 150.548 34.6688 150.548 34.4813V15.8625C150.548 15.675 150.614 15.5156 150.745 15.3844C150.876 15.2531 151.036 15.1875 151.223 15.1875H153.445C153.651 15.1875 153.811 15.2531 153.923 15.3844C154.055 15.5156 154.12 15.675 154.12 15.8625V16.9875C154.57 16.3875 155.161 15.8906 155.892 15.4969C156.623 15.1031 157.533 14.9062 158.62 14.9062C159.614 14.9062 160.476 15.0656 161.208 15.3844C161.939 15.7031 162.548 16.1625 163.036 16.7625C163.523 17.3437 163.898 18.0375 164.161 18.8437C164.423 19.65 164.573 20.5406 164.611 21.5156C164.63 21.8344 164.639 22.1625 164.639 22.5C164.639 22.8375 164.63 23.175 164.611 23.5125C164.592 24.45 164.451 25.3219 164.189 26.1281C163.926 26.9156 163.542 27.6094 163.036 28.2094C162.548 28.7906 161.939 29.25 161.208 29.5875C160.476 29.925 159.614 30.0938 158.62 30.0938C157.608 30.0938 156.745 29.9156 156.033 29.5594C155.32 29.1844 154.739 28.6969 154.289 28.0969V34.4813C154.289 34.6688 154.223 34.8281 154.092 34.9594C153.98 35.0906 153.82 35.1563 153.614 35.1563H151.223ZM157.58 27.0844C158.386 27.0844 159.014 26.9156 159.464 26.5781C159.914 26.2219 160.233 25.7625 160.42 25.2C160.626 24.6375 160.748 24.0187 160.786 23.3437C160.823 22.7812 160.823 22.2187 160.786 21.6562C160.748 20.9812 160.626 20.3625 160.42 19.8C160.233 19.2375 159.914 18.7875 159.464 18.45C159.014 18.0937 158.386 17.9156 157.58 17.9156C156.811 17.9156 156.183 18.0937 155.695 18.45C155.226 18.8062 154.88 19.2656 154.655 19.8281C154.448 20.3719 154.326 20.9344 154.289 21.5156C154.27 21.8531 154.261 22.2094 154.261 22.5844C154.261 22.9594 154.27 23.325 154.289 23.6812C154.308 24.2437 154.439 24.7875 154.683 25.3125C154.926 25.8187 155.283 26.2406 155.751 26.5781C156.22 26.9156 156.83 27.0844 157.58 27.0844ZM172.043 30.0938C171.068 30.0938 170.187 29.9063 169.399 29.5312C168.612 29.1375 167.984 28.6219 167.515 27.9844C167.065 27.3281 166.84 26.5969 166.84 25.7906C166.84 24.4781 167.365 23.4375 168.415 22.6687C169.484 21.8812 170.89 21.3562 172.634 21.0937L176.487 20.5312V19.9406C176.487 19.1531 176.29 18.5437 175.896 18.1125C175.502 17.6812 174.827 17.4656 173.871 17.4656C173.196 17.4656 172.643 17.6062 172.212 17.8875C171.799 18.15 171.49 18.5062 171.284 18.9562C171.134 19.2 170.918 19.3219 170.637 19.3219H168.415C168.209 19.3219 168.049 19.2656 167.937 19.1531C167.843 19.0406 167.796 18.8906 167.796 18.7031C167.815 18.4031 167.937 18.0375 168.162 17.6062C168.387 17.175 168.743 16.7625 169.231 16.3687C169.718 15.9562 170.346 15.6094 171.115 15.3281C171.884 15.0469 172.812 14.9062 173.899 14.9062C175.081 14.9062 176.074 15.0562 176.881 15.3563C177.706 15.6375 178.362 16.0219 178.849 16.5094C179.337 16.9969 179.693 17.5687 179.918 18.225C180.143 18.8812 180.256 19.575 180.256 20.3062V29.1375C180.256 29.325 180.19 29.4844 180.059 29.6156C179.927 29.7469 179.768 29.8125 179.581 29.8125H177.302C177.096 29.8125 176.927 29.7469 176.796 29.6156C176.684 29.4844 176.627 29.325 176.627 29.1375V28.0406C176.384 28.3969 176.056 28.7344 175.643 29.0531C175.231 29.3531 174.724 29.6062 174.124 29.8125C173.543 30 172.849 30.0938 172.043 30.0938ZM172.999 27.4219C173.656 27.4219 174.246 27.2812 174.771 27C175.315 26.7187 175.737 26.2875 176.037 25.7062C176.356 25.1062 176.515 24.3562 176.515 23.4562V22.8656L173.702 23.3156C172.596 23.4844 171.771 23.7562 171.227 24.1312C170.684 24.5062 170.412 24.9656 170.412 25.5094C170.412 25.9219 170.534 26.2781 170.777 26.5781C171.04 26.8594 171.368 27.075 171.762 27.225C172.156 27.3562 172.568 27.4219 172.999 27.4219ZM190.336 29.8125C189.211 29.8125 188.264 29.6156 187.495 29.2219C186.726 28.8281 186.154 28.2469 185.779 27.4781C185.404 26.6906 185.217 25.7156 185.217 24.5531V18.1687H182.995C182.808 18.1687 182.648 18.1031 182.517 17.9719C182.386 17.8406 182.32 17.6812 182.32 17.4937V15.8625C182.32 15.675 182.386 15.5156 182.517 15.3844C182.648 15.2531 182.808 15.1875 182.995 15.1875H185.217V10.5187C185.217 10.3312 185.273 10.1719 185.386 10.0406C185.517 9.90937 185.686 9.84375 185.892 9.84375H188.17C188.358 9.84375 188.517 9.90937 188.648 10.0406C188.779 10.1719 188.845 10.3312 188.845 10.5187V15.1875H192.361C192.548 15.1875 192.708 15.2531 192.839 15.3844C192.97 15.5156 193.036 15.675 193.036 15.8625V17.4937C193.036 17.6812 192.97 17.8406 192.839 17.9719C192.708 18.1031 192.548 18.1687 192.361 18.1687H188.845V24.2719C188.845 25.0406 188.976 25.6406 189.239 26.0719C189.52 26.5031 189.998 26.7187 190.673 26.7187H192.614C192.801 26.7187 192.961 26.7844 193.092 26.9156C193.223 27.0469 193.289 27.2062 193.289 27.3937V29.1375C193.289 29.325 193.223 29.4844 193.092 29.6156C192.961 29.7469 192.801 29.8125 192.614 29.8125H190.336ZM200.031 30.0938C199.056 30.0938 198.174 29.9063 197.387 29.5312C196.599 29.1375 195.971 28.6219 195.503 27.9844C195.053 27.3281 194.828 26.5969 194.828 25.7906C194.828 24.4781 195.353 23.4375 196.403 22.6687C197.471 21.8812 198.878 21.3562 200.621 21.0937L204.474 20.5312V19.9406C204.474 19.1531 204.278 18.5437 203.884 18.1125C203.49 17.6812 202.815 17.4656 201.859 17.4656C201.184 17.4656 200.631 17.6062 200.199 17.8875C199.787 18.15 199.478 18.5062 199.271 18.9562C199.121 19.2 198.906 19.3219 198.624 19.3219H196.403C196.196 19.3219 196.037 19.2656 195.924 19.1531C195.831 19.0406 195.784 18.8906 195.784 18.7031C195.803 18.4031 195.924 18.0375 196.149 17.6062C196.374 17.175 196.731 16.7625 197.218 16.3687C197.706 15.9562 198.334 15.6094 199.103 15.3281C199.871 15.0469 200.799 14.9062 201.887 14.9062C203.068 14.9062 204.062 15.0562 204.868 15.3563C205.693 15.6375 206.349 16.0219 206.837 16.5094C207.324 16.9969 207.681 17.5687 207.906 18.225C208.131 18.8812 208.243 19.575 208.243 20.3062V29.1375C208.243 29.325 208.178 29.4844 208.046 29.6156C207.915 29.7469 207.756 29.8125 207.568 29.8125H205.29C205.084 29.8125 204.915 29.7469 204.784 29.6156C204.671 29.4844 204.615 29.325 204.615 29.1375V28.0406C204.371 28.3969 204.043 28.7344 203.631 29.0531C203.218 29.3531 202.712 29.6062 202.112 29.8125C201.531 30 200.837 30.0938 200.031 30.0938ZM200.987 27.4219C201.643 27.4219 202.234 27.2812 202.759 27C203.303 26.7187 203.724 26.2875 204.024 25.7062C204.343 25.1062 204.503 24.3562 204.503 23.4562V22.8656L201.69 23.3156C200.584 23.4844 199.759 23.7562 199.215 24.1312C198.671 24.5062 198.399 24.9656 198.399 25.5094C198.399 25.9219 198.521 26.2781 198.765 26.5781C199.028 26.8594 199.356 27.075 199.749 27.225C200.143 27.3562 200.556 27.4219 200.987 27.4219ZM212.526 29.8125C212.339 29.8125 212.179 29.7469 212.048 29.6156C211.917 29.4844 211.851 29.325 211.851 29.1375V15.8625C211.851 15.675 211.917 15.5156 212.048 15.3844C212.179 15.2531 212.339 15.1875 212.526 15.1875H214.833C215.02 15.1875 215.179 15.2531 215.311 15.3844C215.442 15.5156 215.508 15.675 215.508 15.8625V17.0156C215.995 16.4156 216.614 15.9187 217.364 15.525C218.133 15.1125 219.079 14.9062 220.204 14.9062C221.348 14.9062 222.342 15.1687 223.186 15.6937C224.029 16.2 224.676 16.9219 225.126 17.8594C225.595 18.7969 225.829 19.9219 225.829 21.2344V29.1375C225.829 29.325 225.764 29.4844 225.633 29.6156C225.501 29.7469 225.342 29.8125 225.154 29.8125H222.679C222.492 29.8125 222.333 29.7469 222.201 29.6156C222.07 29.4844 222.004 29.325 222.004 29.1375V21.4031C222.004 20.3156 221.733 19.4625 221.189 18.8437C220.664 18.225 219.895 17.9156 218.883 17.9156C217.908 17.9156 217.129 18.225 216.548 18.8437C215.967 19.4625 215.676 20.3156 215.676 21.4031V29.1375C215.676 29.325 215.611 29.4844 215.479 29.6156C215.348 29.7469 215.189 29.8125 215.001 29.8125H212.526Z" fill="#525298"/>
</svg>
