<svg width="250" height="250" viewBox="0 0 250 250" fill="none" xmlns="http://www.w3.org/2000/svg">
<path d="M250 0H0V250H250V0Z" fill="white"/>
<path d="M124.256 47.619C124.256 47.619 155.833 55.7833 174.513 51.1862C193.193 46.5894 199.012 56.9601 193.934 63.6164C188.856 70.2359 174.142 76.3775 158.724 75.8626C143.306 75.3477 124.256 47.619 124.256 47.619Z" fill="#F5BAAE"/>
<path d="M139.137 60.2678L154.647 75.1958C155.977 75.6023 157.269 75.8239 158.561 75.8608C165.984 76.1194 173.222 74.7894 179.316 72.6462C164.286 72.2397 139.137 60.2678 139.137 60.2678Z" fill="black"/>
<path d="M115.345 23.0685C115.345 23.0685 88.1204 15.667 54.7272 47.4569L65.5135 75.5828C65.5135 75.5828 46.6743 98.9348 57.867 115.884C69.0597 132.834 91.8141 157.148 101.899 144.603C112.02 132.057 85.4605 109.963 85.4605 109.963L95.8775 94.1237C95.8775 94.1237 104.632 102.562 119.703 96.7514L148.036 107.114C148.036 107.114 146.891 143.011 159.117 146.194C171.345 149.377 169.46 138.274 170.126 127.764C170.827 117.254 170.827 117.254 170.827 117.254C170.827 117.254 178.88 105.485 175.519 92.6064C175.519 92.6064 164.326 66.886 130.674 48.6041L115.345 23.0685Z" fill="#F5BAAE"/>
<path d="M163.778 139.606C162.72 128.644 149.553 127.232 149.553 127.232L149.626 128.087C151.012 136.522 153.784 144.586 159.182 146.035C161.371 146.592 163.085 146.704 164.434 146.444C164.252 144.846 164.033 142.654 163.778 139.606Z" fill="black"/>
<path d="M171.11 116.816L170.006 116.779C170.374 101.683 165.957 90.2875 157.639 84.6447C148.217 78.2691 134.783 71.7471 134.673 71.6738L135.151 70.6846C135.298 70.7576 148.806 77.3166 158.265 83.7286C166.914 89.5911 171.478 101.353 171.11 116.816Z" fill="black"/>
<path d="M127.473 61.012L126.488 61.5851L130.711 67.7084L131.696 67.1352L127.473 61.012Z" fill="black"/>
<path d="M62.8416 106.399L57.2917 108.395L57.6943 109.375L63.2441 107.379L62.8416 106.399Z" fill="white"/>
<path d="M65.0875 110.863L60.2678 112.788L60.6565 113.839L65.4762 111.914L65.0875 110.863Z" fill="white"/>
<path d="M165.83 75.8928C159.39 67.9366 143.783 58.3597 143.601 58.2492L144.147 57.2916C144.802 57.6968 160.118 67.0894 166.667 75.1928L165.83 75.8928Z" fill="black"/>
<path d="M137.127 50.5952L136.161 51.1077L138.915 56.5476L139.881 56.0352L137.127 50.5952Z" fill="black"/>
<path d="M160.581 90.0298L156.994 93.7881L157.871 94.4941L161.458 90.7358L160.581 90.0298Z" fill="white"/>
<path d="M125.744 205.529L130.967 209.077L131.697 207.417L126.474 203.869L125.744 205.529Z" fill="black"/>
<path d="M138.72 212.798L142.113 211.454L141.787 210.565L138.393 211.909L138.72 212.798Z" fill="black"/>
<path d="M148.065 194.75L147.453 190.476L146.577 190.667L147.19 194.94L148.065 194.75Z" fill="black"/>
<path d="M139.137 195.85L136.496 189.732L134.673 190.311L137.313 196.429L139.137 195.85Z" fill="black"/>
<path d="M133.185 226.769L129.78 225.446L129.464 226.356L132.869 227.679L133.185 226.769Z" fill="black"/>
<path d="M152.394 220.238L150.298 223.468L151.177 223.958L153.274 220.728L152.394 220.238Z" fill="black"/>
<path d="M142.113 203.125C142.524 203.125 142.857 202.792 142.857 202.381C142.857 201.97 142.524 201.637 142.113 201.637C141.702 201.637 141.369 201.97 141.369 202.381C141.369 202.792 141.702 203.125 142.113 203.125Z" fill="black"/>
<path d="M96.7261 131.696V167.295L99.8767 169.167L127.939 186.012L127.976 185.975L127.83 149.826L96.7261 131.696Z" fill="black"/>
<path d="M159.226 132.096L127.352 113.839L96.7628 132.059L96.7261 132.096L127.903 150.316L128.049 186.756L159.226 167.945V132.096Z" fill="white"/>
<path d="M109.839 139.881L154.018 129.099L127.459 113.839L96.7261 132.233L109.839 139.881Z" fill="black"/>
<path d="M96.6168 168.155L77.3809 171.164L104.281 189.732L127.976 186.87L96.6168 168.155Z" fill="black"/>
<path d="M128.5 130.208L127.232 135.23L128.196 135.417L129.464 130.395L128.5 130.208Z" fill="white"/>
<path d="M128.367 135.417L127.232 135.155L128.329 130.208L129.464 130.471L128.367 135.417ZM127.686 134.892L128.102 134.967L129.048 130.733L128.632 130.658L127.686 134.892Z" fill="white"/>
<path d="M114.583 153.274H104.911V154.018H114.583V153.274Z" fill="white"/>
<path d="M108.331 162.202L107.887 162.785L115.627 169.643L116.071 169.06L108.331 162.202Z" fill="white"/>
<path d="M124.472 153.56L121.191 152.968L121.079 153.671L123.503 154.114L115.711 158.586L110.38 154.262L110.119 154.594L115.301 158.808L112.803 160.249L113.139 160.877L115.897 159.288L120.371 162.946L120.632 162.614L116.27 159.066L124.621 154.299L124.584 154.225L125.255 153.818L125.292 153.892L127.976 152.377L127.604 151.786L124.472 153.56Z" fill="white"/>
<path d="M113.12 164.435L113.095 164.946L126.464 165.923L126.488 165.411L113.12 164.435Z" fill="white"/>
<path d="M117.581 151.786L116.815 156.053L117.538 156.25L118.304 151.983L117.581 151.786Z" fill="white"/>
<path d="M111.389 159.226L110.863 159.305L111.081 163.69L111.607 163.611L111.389 159.226Z" fill="white"/>
<path d="M121.407 163.69L121.28 164.581L125.617 165.179L125.744 164.288L121.407 163.69Z" fill="white"/>
<path d="M121.407 150.298L121.28 151.188L125.617 151.786L125.744 150.896L121.407 150.298Z" fill="white"/>
<path d="M120.536 151.378L113.208 148.81L113.095 149.217L120.385 151.786L120.536 151.378Z" fill="white"/>
<path d="M119.048 158.788L126.337 160.714L126.488 160.409L119.199 158.482L119.048 158.788Z" fill="white"/>
<path d="M125.744 148.065V147.817C125.698 147.817 125.651 147.817 125.604 147.768L125.326 147.47C125.326 147.421 125.279 147.371 125.279 147.321H125.14H125C125 147.718 125.326 148.065 125.744 148.065Z" fill="white"/>
<path d="M122.768 168.155C122.35 168.155 122.024 168.48 122.024 168.899C122.024 169.317 122.35 169.643 122.768 169.643C123.187 169.643 123.512 169.317 123.512 168.899C123.512 168.48 123.187 168.155 122.768 168.155Z" fill="white"/>
<path d="M121.28 138.393C120.861 138.393 120.536 138.719 120.536 139.137C120.536 139.556 120.861 139.881 121.28 139.881C121.698 139.881 122.024 139.556 122.024 139.137C121.977 138.719 121.652 138.393 121.28 138.393Z" fill="white"/>
<path d="M108.631 156.994C108.631 156.557 108.281 156.25 107.887 156.25C107.493 156.25 107.143 156.6 107.143 156.994C107.143 157.432 107.493 157.738 107.887 157.738C108.281 157.738 108.631 157.432 108.631 156.994Z" fill="white"/>
<path d="M126.488 159.226C126.899 159.226 127.232 158.893 127.232 158.482C127.232 158.071 126.899 157.738 126.488 157.738C126.077 157.738 125.744 158.071 125.744 158.482C125.744 158.893 126.077 159.226 126.488 159.226Z" fill="white"/>
<path d="M111.978 169.643C111.76 169.643 111.607 169.993 111.607 170.387C111.607 170.825 111.782 171.131 111.978 171.131C112.175 171.131 112.349 170.781 112.349 170.387C112.371 169.993 112.197 169.643 111.978 169.643Z" fill="white"/>
<path d="M107.515 145.089C107.715 145.089 107.887 144.93 107.887 144.717C107.887 144.505 107.715 144.345 107.515 144.345C107.315 144.345 107.143 144.505 107.143 144.717C107.143 144.93 107.286 145.089 107.515 145.089Z" fill="white"/>
<path d="M119.048 154.018C119.048 154.414 119.221 154.762 119.42 154.762C119.618 154.762 119.792 154.414 119.792 154.018C119.792 153.621 119.618 153.274 119.42 153.274C119.221 153.274 119.048 153.621 119.048 154.018Z" fill="white"/>
<path d="M125.744 131.696H113.839V132.44H125.744V131.696Z" fill="white"/>
<path d="M140.756 130.346L140.243 129.464L136.69 131.61L132.99 130.92L132.807 131.917L135.371 132.415L126.909 137.55L120.939 132.415L120.536 132.913L126.506 138.086L126.653 137.933L126.763 137.971L126.836 138.048L126.873 138.01L127.349 138.201L127.459 138.393L136.873 132.683L144.162 134.101L144.345 133.105L138.155 131.917L140.756 130.346Z" fill="white"/>
<path d="M133.306 127.976L133.185 128.848L137.528 129.464L137.649 128.592L133.306 127.976Z" fill="white"/>
<path d="M123.699 126.488L123.512 127.164L131.51 130.208L131.696 129.532L123.699 126.488Z" fill="white"/>
<path d="M151.786 129.092H148.071L142.02 124.256L141.369 125L146.501 129.092H142.71V129.688H147.267L150.675 132.44L151.326 131.659L148.875 129.688H151.786V129.092Z" fill="white"/>
<path d="M137.649 125.744C138.058 125.744 138.393 125.409 138.393 125C138.393 124.591 138.058 124.256 137.649 124.256C137.24 124.256 136.905 124.591 136.905 125C136.905 125.409 137.24 125.744 137.649 125.744Z" fill="white"/>
<path d="M116.815 136.161C116.815 136.567 117.154 136.905 117.559 136.905C117.965 136.905 118.304 136.567 118.304 136.161C118.304 135.755 117.965 135.417 117.559 135.417C117.154 135.417 116.815 135.755 116.815 136.161Z" fill="white"/>
<path d="M116.816 122.024C117.21 122.024 117.56 121.859 117.56 121.652C117.56 121.445 117.21 121.28 116.816 121.28C116.422 121.28 116.072 121.445 116.072 121.652C116.072 121.859 116.422 122.024 116.816 122.024Z" fill="white"/>
<path d="M130.58 133.184C130.786 133.184 130.952 133.018 130.952 132.812C130.952 132.607 130.786 132.44 130.58 132.44C130.375 132.44 130.208 132.607 130.208 132.812C130.208 133.018 130.375 133.184 130.58 133.184Z" fill="white"/>
<path d="M130.952 133.185C130.561 133.185 130.208 132.871 130.208 132.44C130.208 132.049 130.521 131.696 130.952 131.696C131.383 131.696 131.696 132.01 131.696 132.44C131.657 132.871 131.344 133.185 130.952 133.185ZM130.952 132.127C130.757 132.127 130.6 132.284 130.6 132.48C130.6 132.675 130.757 132.832 130.952 132.832C131.148 132.832 131.305 132.675 131.305 132.48C131.305 132.284 131.109 132.127 130.952 132.127Z" fill="white"/>
<path d="M159.226 151.042L159.263 167.411L167.411 156.413L159.226 151.042Z" fill="black"/>
<path d="M158.663 166.667L127.976 185.781L128.539 186.756L159.226 167.641L158.663 166.667Z" fill="black"/>
<path d="M159.412 131.696L127.232 149.353L127.79 150.298L159.97 132.641L159.412 131.696Z" fill="black"/>
<path d="M96.5631 166.667L95.9822 167.602L127.395 186.756L127.976 185.82L96.5631 166.667Z" fill="white"/>
<path d="M58.0356 116.016C69.3969 132.896 92.3809 157.111 102.583 144.617C112.824 132.122 85.9529 110.119 85.9529 110.119" fill="#F5BAAE"/>
<path d="M98.6707 142.113C98.6339 142.043 94.9507 134.037 89.2413 132.883C86.8102 132.394 84.3057 133.233 81.8377 135.365L81.1011 134.596C83.8636 132.219 86.6999 131.275 89.4993 131.869C95.7242 133.163 99.518 141.379 99.7023 141.728L98.6707 142.113Z" fill="black"/>
</svg>
