<svg width="318" height="303" viewBox="0 0 318 303" fill="none" xmlns="http://www.w3.org/2000/svg">
<path d="M142.376 142.023C130.626 144.961 129.301 159.072 137.365 168.116C145.429 177.159 167.432 202.215 185.518 196.166C203.604 190.119 183.733 157.46 177.512 153.025C170.485 148.071 154.414 139.028 142.376 142.023Z" fill="#FFF1CC"/>
<path d="M334.7 312.288V357.676C334.7 357.676 292.595 383.25 245.594 357.676L247.783 317.011L294.15 222.145L334.7 312.288Z" fill="#2C2C63"/>
<path d="M289.715 370.175C276.64 370.175 261.146 367.468 245.018 358.713L244.384 358.367L246.631 316.723L246.746 316.492L294.208 219.437L335.91 312.057V358.309L335.334 358.655C334.873 358.943 324.448 365.221 308.032 368.389C302.79 369.426 296.627 370.175 289.715 370.175ZM246.804 357.042C270.534 369.714 292.883 369.023 307.514 366.2C321.453 363.493 331.244 358.367 333.606 357.042V312.575L294.15 224.909L248.993 317.356L246.804 357.042Z" fill="#2C2C63"/>
<path d="M153.896 154.58L155.106 174.049L205.793 334.636L306.995 304.626L310.566 298.002L153.896 154.58Z" fill="#2C2C63"/>
<path d="M256.171 122.366L154.109 154.171L208.704 329.369L310.765 297.565L256.171 122.366Z" fill="white"/>
<path d="M255.04 124.686L308.608 296.62L209.825 327.378L156.258 155.444L255.04 124.686ZM256.135 122.497L154.069 154.292L208.673 329.509L310.739 297.715L256.135 122.497Z" fill="#2C2C63"/>
<path d="M183.56 146.459L192.948 154.292L223.649 144.731L227.969 132.635L183.56 146.459Z" fill="#2C2C63"/>
<path d="M251.156 136.069C252.917 135.52 253.855 133.5 253.249 131.556C252.643 129.612 250.724 128.482 248.963 129.031C247.201 129.579 246.264 131.6 246.87 133.544C247.476 135.487 249.395 136.618 251.156 136.069Z" fill="#2C2C63"/>
<path d="M250.701 173.299L195.711 190.435L205.649 222.329L260.639 205.194L250.701 173.299Z" fill="#2C2C63"/>
<path d="M273.758 230.742L209.406 252.971L211.419 258.796L275.77 236.568L273.758 230.742Z" fill="#2C2C63"/>
<path d="M281.246 246.87L216.894 269.099L218.906 274.924L283.258 252.695L281.246 246.87Z" fill="#2C2C63"/>
<path d="M226.989 210.97C233.479 210.97 238.74 205.71 238.74 199.22C238.74 192.73 233.479 187.47 226.989 187.47C220.5 187.47 215.24 192.73 215.24 199.22C215.24 205.71 220.5 210.97 226.989 210.97Z" fill="white"/>
<path d="M226.99 187.47V189.197C230.964 189.197 234.535 191.559 236.148 195.13C238.394 200.199 236.148 206.132 231.079 208.378C229.754 208.954 228.43 209.242 226.99 209.242C223.015 209.242 219.444 206.88 217.831 203.309C216.737 200.833 216.679 198.125 217.601 195.649C218.522 193.172 220.423 191.156 222.9 190.061C224.225 189.485 225.549 189.197 226.99 189.197V187.47ZM226.99 187.47C225.377 187.47 223.764 187.815 222.209 188.506C216.276 191.156 213.627 198.125 216.276 204.058C218.234 208.436 222.555 211.028 227.047 211.028C228.66 211.028 230.273 210.682 231.828 209.991C237.761 207.341 240.41 200.372 237.761 194.439C235.802 190.061 231.482 187.47 226.99 187.47Z" fill="#2C2C63"/>
<path d="M226.99 208.724C225.838 208.724 224.686 208.493 223.591 208.09C221.23 207.168 219.386 205.441 218.35 203.137C216.218 198.356 218.35 192.769 223.131 190.637C227.911 188.506 233.498 190.637 235.629 195.418C236.666 197.722 236.724 200.314 235.802 202.676C234.881 205.037 233.153 206.88 230.849 207.917C229.582 208.436 228.314 208.724 226.99 208.724ZM226.99 190.349C225.78 190.349 224.57 190.58 223.361 191.098C218.868 193.114 216.852 198.356 218.868 202.849C219.847 205.037 221.575 206.65 223.821 207.514C226.01 208.378 228.43 208.32 230.618 207.342C232.807 206.362 234.42 204.634 235.284 202.388C236.148 200.199 236.09 197.78 235.111 195.591C233.613 192.308 230.388 190.349 226.99 190.349Z" fill="#2C2C63"/>
<path d="M237.862 138.623C238.925 138.292 239.495 137.088 239.135 135.934C238.776 134.78 237.622 134.113 236.559 134.444C235.496 134.775 234.927 135.979 235.286 137.133C235.645 138.287 236.799 138.954 237.862 138.623Z" fill="#2C2C63"/>
<path d="M236.148 188.967C231.943 200.833 251.93 227.616 303.078 250.08C303.078 250.08 266.215 271.68 280.442 319.602C289.888 351.513 351.577 317.183 351.865 279.398C352.095 244.781 341.382 231.303 336.313 222.144C331.302 212.986 302.733 193.114 275.2 184.763C247.668 176.411 239.316 180.039 236.148 188.967Z" fill="#FFF1CC"/>
<path d="M255.616 197.837C249.223 197.837 242.253 194.439 239.028 192.711L238.913 192.653L240.007 190.637L240.122 190.695C243.118 192.308 253.37 197.434 259.879 194.785C262.298 193.805 263.853 191.905 264.775 188.967L266.963 189.658C265.869 193.287 263.795 195.706 260.743 196.973C259.188 197.549 257.402 197.837 255.616 197.837Z" fill="#2C2C63"/>
<path d="M292.019 307.507C292.019 307.507 279.348 328.069 281.478 369.138C281.478 369.138 304.115 377.029 336.255 358.079V312.748C324.793 300.883 310.796 300.94 292.019 307.507Z" fill="#FFF1CC"/>
<path d="M162.19 253.651C152.571 256.07 151.477 267.705 158.043 275.078C164.667 282.508 178.663 296.504 193.524 291.551C208.385 286.597 196.174 266.323 191.048 262.694C185.288 258.604 172.04 251.174 162.19 253.651Z" fill="#2C2C63"/>
<path d="M158.043 224.045C148.424 226.464 146.178 239.251 152.744 246.624C159.368 254.054 180.852 270.009 192.948 260.102C204.526 250.598 193.985 240.634 185.749 234.24C180.161 229.92 167.95 221.568 158.043 224.045Z" fill="#FFF1CC"/>
<path d="M196.289 269.03C195.194 270.298 193.582 271.334 191.393 272.083C177.223 276.806 163.745 264.192 156.834 256.589C152.398 261.139 152.917 269.376 158.043 275.078C164.667 282.508 178.663 296.505 193.524 291.552C204.18 288.038 200.897 276.576 196.289 269.03Z" fill="#FFF1CC"/>
<path d="M186.094 260.621L185.115 258.547C188.859 256.819 190.817 254.688 190.99 252.211C191.336 247.027 183.733 240.864 180.795 238.963L182.062 237.005C182.523 237.293 193.87 244.781 193.294 252.384C193.006 255.725 190.644 258.49 186.094 260.621Z" fill="#2C2C63"/>
<path d="M188.743 289.593L187.764 287.52C191.508 285.792 193.467 283.66 193.64 281.183C193.985 276 186.382 269.836 183.444 267.936L184.712 265.977C185.173 266.265 196.519 273.753 195.944 281.356C195.656 284.697 193.236 287.462 188.743 289.593Z" fill="#2C2C63"/>
<path d="M130.798 172.551C140.183 172.551 147.791 164.943 147.791 155.559C147.791 146.174 140.183 138.567 130.798 138.567C121.414 138.567 113.807 146.174 113.807 155.559C113.807 164.943 121.414 172.551 130.798 172.551Z" fill="#2C2C63"/>
<path d="M125.442 170.419C134.826 170.419 142.434 162.812 142.434 153.428C142.434 144.043 134.826 136.435 125.442 136.435C116.058 136.435 108.45 144.043 108.45 153.428C108.45 162.812 116.058 170.419 125.442 170.419Z" fill="white"/>
<path d="M125.442 136.435V138.163C130.798 138.163 135.695 140.928 138.517 145.478C140.648 148.935 141.282 153.082 140.302 156.998C139.323 160.915 136.904 164.314 133.391 166.445C130.972 167.885 128.264 168.691 125.499 168.691C120.085 168.691 115.247 165.926 112.425 161.376C108.047 154.176 110.351 144.787 117.551 140.41C119.97 138.97 122.677 138.163 125.442 138.163V136.435ZM125.442 136.435C122.447 136.435 119.394 137.242 116.629 138.912C108.623 143.808 106.031 154.234 110.927 162.24C114.152 167.482 119.74 170.419 125.442 170.419C128.437 170.419 131.49 169.613 134.255 167.942C142.261 163.047 144.853 152.621 139.957 144.614C136.789 139.315 131.202 136.435 125.442 136.435Z" fill="#2C2C63"/>
<path d="M124.481 166.491L123.962 167.519L134.244 172.712L134.764 171.684L124.481 166.491Z" fill="white"/>
<path d="M132.018 163.273L131.493 164.299L140.929 169.125L141.454 168.099L132.018 163.273Z" fill="white"/>
<path d="M135.35 157.997L134.831 159.025L145.113 164.218L145.633 163.19L135.35 157.997Z" fill="white"/>
<path d="M139.643 152.606L139.132 153.639L147.239 157.647L147.749 156.614L139.643 152.606Z" fill="white"/>
<path d="M138.565 146.429L138.099 147.482L146.629 151.263L147.096 150.21L138.565 146.429Z" fill="white"/>
<path d="M118.242 148.704C118.242 148.704 121.871 147.495 121.353 144.442L127.343 159.303" fill="white"/>
<path d="M126.882 160.455L121.583 147.264C120.777 148.474 119.394 149.223 118.53 149.511L117.724 149.799L117.205 148.186L118.012 147.898C118.127 147.84 120.949 146.861 120.546 144.615L122.217 144.154L128.552 159.821L126.882 160.455Z" fill="#2C2C63"/>
<path d="M131.54 157.084L122.921 160.66L123.583 162.256L132.202 158.68L131.54 157.084Z" fill="#2C2C63"/>
<path d="M125.499 166.963C124.405 166.963 123.311 166.848 122.274 166.56C118.76 165.696 115.765 163.508 113.922 160.455C112.021 157.344 111.503 153.716 112.367 150.202C113.231 146.688 115.42 143.693 118.472 141.85C121.583 139.949 125.211 139.431 128.725 140.295C132.238 141.159 135.234 143.348 137.077 146.401C138.977 149.511 139.496 153.14 138.632 156.653C137.768 160.167 135.579 163.162 132.526 165.005C130.338 166.272 127.919 166.963 125.499 166.963ZM125.442 140.468C123.08 140.468 120.777 141.101 118.76 142.369C115.823 144.154 113.691 147.034 112.885 150.375C112.079 153.716 112.597 157.229 114.383 160.167C116.168 163.104 119.048 165.236 122.389 166.042C125.73 166.848 129.243 166.33 132.181 164.544C135.119 162.759 137.25 159.879 138.056 156.538C138.863 153.197 138.344 149.684 136.559 146.746C134.773 143.809 131.893 141.677 128.552 140.871C127.516 140.583 126.479 140.468 125.442 140.468Z" fill="#2C2C63"/>
<path d="M155.509 111.783C166.293 111.783 175.035 103.041 175.035 92.2571C175.035 81.473 166.293 72.7308 155.509 72.7308C144.724 72.7308 135.983 81.473 135.983 92.2571C135.983 103.041 144.724 111.783 155.509 111.783Z" fill="#2C2C63"/>
<path d="M154.126 105.332C164.91 105.332 173.652 96.5901 173.652 85.806C173.652 75.0219 164.91 66.2797 154.126 66.2797C143.342 66.2797 134.6 75.0219 134.6 85.806C134.6 96.5901 143.342 105.332 154.126 105.332Z" fill="white"/>
<path d="M154.126 66.2797V68.0076C156.718 68.0076 159.195 68.5836 161.557 69.6782C170.484 73.7678 174.344 84.366 170.254 93.2937C167.374 99.5721 161.038 103.604 154.069 103.604C151.477 103.604 149 103.028 146.638 101.934C142.318 99.9178 139.035 96.4043 137.423 91.9114C135.81 87.4762 135.983 82.6381 137.999 78.3179C140.878 72.0398 147.215 68.0076 154.184 68.0076L154.126 66.2797ZM154.126 66.2797C146.754 66.2797 139.727 70.4845 136.386 77.627C131.835 87.4186 136.155 98.9962 145.89 103.547C148.539 104.756 151.304 105.332 154.069 105.332C161.441 105.332 168.526 101.127 171.809 93.985C176.359 84.193 172.04 72.6158 162.305 68.0653C159.656 66.8556 156.891 66.2797 154.126 66.2797Z" fill="#2C2C63"/>
<path d="M141.106 93.2187L139.963 93.3613L141.597 106.45L142.74 106.308L141.106 93.2187Z" fill="white"/>
<path d="M148.824 98.3629L147.681 98.5055L149.314 111.594L150.457 111.452L148.824 98.3629Z" fill="white"/>
<path d="M156.37 99.5573L155.226 99.6999L156.861 112.789L158.004 112.646L156.37 99.5573Z" fill="white"/>
<path d="M163.929 98.8174L162.785 98.9599L164.418 112.049L165.561 111.906L163.929 98.8174Z" fill="white"/>
<path d="M169.112 93.9203L167.969 94.0633L169.602 107.152L170.745 107.009L169.112 93.9203Z" fill="white"/>
<path d="M153.954 75.8991C153.954 75.8991 157.467 78.6059 160.001 76.1294L149.691 91.3932" fill="white"/>
<path d="M149.921 92.6028L148.482 91.6235L157.698 78.0303C155.97 78.088 154.299 77.2813 153.377 76.5904L152.686 76.0717L153.723 74.6894L154.414 75.2077C154.53 75.3231 157.352 77.3967 159.368 75.4957L160.693 76.5904L149.921 92.6028Z" fill="#2C2C63"/>
<path d="M145.682 88.2553L144.727 89.6953L153.415 95.4583L154.37 94.0184L145.682 88.2553Z" fill="#2C2C63"/>
<path d="M154.126 101.3C151.937 101.3 149.691 100.839 147.618 99.8601C143.874 98.1322 140.994 95.022 139.553 91.1628C138.114 87.3036 138.287 83.0415 140.014 79.2972C143.586 71.5215 152.859 68.1229 160.577 71.7518C164.321 73.4798 167.201 76.5904 168.642 80.4492C170.081 84.3084 169.908 88.5709 168.18 92.3148C166.453 96.059 163.342 98.9389 159.483 100.379C157.755 101.012 155.912 101.3 154.126 101.3ZM154.126 70.8879C148.482 70.8879 143.067 74.1134 140.533 79.5275C138.863 83.1564 138.69 87.1882 140.072 90.9325C141.454 94.6763 144.219 97.6716 147.791 99.3418C151.419 101.012 155.451 101.185 159.195 99.8029C162.939 98.4202 165.934 95.6557 167.604 92.0844C169.275 88.4556 169.448 84.4237 168.066 80.6795C166.683 76.9356 163.918 73.9408 160.347 72.2701C158.389 71.3485 156.258 70.8879 154.126 70.8879Z" fill="#2C2C63"/>
<path d="M89.8453 86.7853C102.443 86.7853 112.655 76.5731 112.655 63.9758C112.655 51.3784 102.443 41.1666 89.8453 41.1666C77.248 41.1666 67.0361 51.3784 67.0361 63.9758C67.0361 76.5731 77.248 86.7853 89.8453 86.7853Z" fill="#2C2C63"/>
<path d="M82.7605 89.8378C95.3578 89.8378 105.57 79.6256 105.57 67.0283C105.57 54.4314 95.3578 44.2191 82.7605 44.2191C70.1632 44.2191 59.9514 54.4314 59.9514 67.0283C59.9514 79.6256 70.1632 89.8378 82.7605 89.8378Z" fill="white"/>
<path d="M82.7609 44.2191V45.9471C84.4312 45.9471 86.0441 46.1201 87.6567 46.523C93.1285 47.848 97.7944 51.1885 100.732 55.9694C103.67 60.7502 104.591 66.4523 103.266 71.9245C100.962 81.4281 92.5525 88.1099 82.7609 88.1099C81.0903 88.1099 79.4777 87.9369 77.8647 87.5339C72.3929 86.2089 67.7275 82.8685 64.7899 78.0876C61.8519 73.3068 60.9307 67.6043 62.2553 62.1325C64.5592 52.6285 72.9689 45.9471 82.7609 45.9471V44.2191ZM82.7609 44.2191C72.4506 44.2191 63.1192 51.2462 60.585 61.7291C57.6475 73.9981 65.1928 86.2666 77.4614 89.2042C79.247 89.6075 81.033 89.8378 82.7609 89.8378C93.0712 89.8378 102.402 82.8108 104.936 72.3274C107.874 60.0589 100.329 47.7904 88.0601 44.8528C86.2745 44.3918 84.4889 44.2191 82.7609 44.2191Z" fill="#2C2C63"/>
<path d="M109.025 75.5076L94.3863 80.4076L94.7522 81.4998L109.391 76.6003L109.025 75.5076Z" fill="white"/>
<path d="M113.066 65.3638L98.4276 70.2633L98.7935 71.356L113.432 66.456L113.066 65.3638Z" fill="white"/>
<path d="M112.778 56.5532L98.1392 61.4531L98.5051 62.5453L113.143 57.6458L112.778 56.5532Z" fill="white"/>
<path d="M110.075 47.9671L95.4361 52.8666L95.802 53.9588L110.44 49.0593L110.075 47.9671Z" fill="white"/>
<path d="M103.212 43.1467L88.5734 48.0462L88.9393 49.1388L103.578 44.2389L103.212 43.1467Z" fill="white"/>
<path d="M71.4713 69.5056C71.4713 69.5056 73.7752 64.8974 70.377 62.4781L90.2486 70.7725" fill="white"/>
<path d="M90.7092 71.9245L72.8535 64.4364C73.4872 66.4523 72.8535 68.6413 72.2776 69.8509L71.8742 70.5995L70.3193 69.8509L70.7223 69.1019C70.7799 68.9292 72.6232 65.1277 69.916 63.1695L70.7223 61.6714L91.4005 70.3115L90.7092 71.9245Z" fill="#2C2C63"/>
<path d="M92.0989 65.0597L87.6002 76.1018L89.2004 76.754L93.6991 65.7119L92.0989 65.0597Z" fill="#2C2C63"/>
<path d="M82.7609 85.1147C81.3782 85.1147 79.9959 84.942 78.556 84.5964C68.8794 82.2925 62.8889 72.5005 65.1928 62.8238C66.2871 58.1007 69.1674 54.1265 73.3141 51.6496C77.4613 49.1726 82.2998 48.3663 86.9653 49.4606C96.642 51.7649 102.632 61.5565 100.329 71.2332C98.3699 79.5275 90.9399 85.1147 82.7609 85.1147ZM82.7609 49.5183C79.5926 49.5183 76.4247 50.3822 73.6598 52.1106C69.6856 54.5294 66.863 58.3886 65.8264 62.9392C63.5798 72.3278 69.3977 81.7742 78.7863 84.0204C88.175 86.2666 97.6213 80.4492 99.8675 71.0605C102.114 61.6719 96.2963 52.2255 86.9077 49.9793C85.4677 49.6913 84.0855 49.5183 82.7609 49.5183Z" fill="#2C2C63"/>
<path d="M137.711 195.994L132.527 209.184L133.967 210.048L139.842 196.512L137.711 195.994Z" fill="#2C2C63"/>
<path d="M239.431 157.805L236.839 171.745L238.452 172.321L241.562 157.863L239.431 157.805Z" fill="#2C2C63"/>
<path d="M228.372 159.879L230.561 173.876H232.288L230.388 159.245L228.372 159.879Z" fill="#2C2C63"/>
<path d="M111.849 98.0745L101.365 107.809L105.109 110.862L115.535 98.8812L111.849 98.0745Z" fill="#2C2C63"/>
<path d="M308.377 182.458C309.555 182.458 310.509 181.504 310.509 180.327C310.509 179.15 309.555 178.195 308.377 178.195C307.2 178.195 306.246 179.15 306.246 180.327C306.246 181.504 307.2 182.458 308.377 182.458Z" fill="#2C2C63"/>
<path d="M173.825 134.881C175.002 134.881 175.957 133.927 175.957 132.75C175.957 131.573 175.002 130.618 173.825 130.618C172.648 130.618 171.694 131.573 171.694 132.75C171.694 133.927 172.648 134.881 173.825 134.881Z" fill="#2C2C63"/>
</svg>
